<?xml version="1.0" encoding="UTF-8" standalone="no"?>
<svg width="103px" height="89px" viewBox="0 0 103 89" version="1.1" xmlns="http://www.w3.org/2000/svg" xmlns:xlink="http://www.w3.org/1999/xlink" xmlns:sketch="http://www.bohemiancoding.com/sketch/ns">
    <!-- Generator: Sketch 3.3.3 (12081) - http://www.bohemiancoding.com/sketch -->
    <title>Shape</title>
    <desc>Created with Sketch.</desc>
    <defs></defs>
    <g id="Page-1" stroke="none" stroke-width="1" fill="none" fill-rule="evenodd" sketch:type="MSPage">
        <g id="noun_144955_cc" sketch:type="MSLayerGroup" fill="#000000">
            <g id="Shape" sketch:type="MSShapeGroup">
                <path d="M95.1802555,7.8 C90.1937517,2.82608696 83.5073035,0 76.4808664,0 C69.4544293,0 62.7679811,2.82608696 57.6681477,7.8 L52.0016662,13.5652174 L46.3351847,7.8 C41.3486809,2.82608696 34.6622327,0 27.522466,0 C20.3826993,0 13.8095807,2.71304348 8.70974729,7.8 C-1.6032491,18.0869565 -1.6032491,34.9304348 8.70974729,45.2173913 L52.0016662,88.4 L89.1737851,51.3217391 L95.1802555,45.3304348 C100.166759,40.3565217 103,33.6869565 103,26.5652174 C103,19.4434783 100.280089,12.773913 95.1802555,7.8 L95.1802555,7.8 Z M79.4274368,5.53913043 C74.2142738,5.87826087 68.8877812,8.70434783 63.4479589,13.9043478 C61.7480144,15.6 59.8214107,17.4086957 57.7814774,19.3304348 L55.5148848,17.0695652 L61.0680367,11.5304348 C65.1479034,7.46086957 70.474396,5.31304348 76.1408775,5.31304348 C77.2741738,5.2 78.4074701,5.31304348 79.4274368,5.53913043 L79.4274368,5.53913043 Z M27.1824771,5.2 C31.0356845,5.2 34.6622327,6.2173913 37.8354624,8.02608696 C35.5688698,7.34782609 33.0756179,7.00869565 30.6956956,7.00869565 C26.5024993,7.00869565 20.15604,8.13913043 14.6028881,13.7913043 C7.00980283,21.3652174 6.66981394,31.3130435 9.50305471,38.6608696 C3.83657317,30.4086957 4.62988059,18.8782609 11.9963066,11.5304348 C16.1895029,7.46086957 21.5159956,5.2 27.1824771,5.2 L27.1824771,5.2 Z"></path>
            </g>
        </g>
    </g>
</svg>